# xmcd
#
# Track frame offsets:
#	150
#	16381
#	35107
#	51350
#	59180
#	75896
#	92778
#	104855
#	114267
#	130727
#
# Disc length: 1981 seconds
#
# Revision: 0
# Processed by: cddbd v1.4PL0 Copyright (c) Steve Scherf et al.
# Submitted via: audiograbber 1.81.03
#
DISCID=8807bb0a
DTITLE=Reid Furniss - Here We Are As In Olden Days
DYEAR=1900
DGENRE=Country
TTITLE0=White Christmas
TTITLE1=Christmas Everyday
TTITLE2=Sweet Baby Jesus
TTITLE3=Light Of Christmas Love
TTITLE4=Silent Night
TTITLE5=Calm The Night
TTITLE6=Mary's Little Boy Child
TTITLE7=It Cam Upon A Midnight Clear
TTITLE8=Have Yourself A Merry Little Christmas
TTITLE9=Christmas All Over The World
EXTD=Holiday
EXTT0=
EXTT1=
EXTT2=
EXTT3=
EXTT4=
EXTT5=
EXTT6=
EXTT7=
EXTT8=
EXTT9=
PLAYORDER=
